<?xml version="1.0" standalone="no"?>
<!DOCTYPE svg PUBLIC "-//W3C//DTD SVG 1.1//EN" "http://www.w3.org/Graphics/SVG/1.1/DTD/svg11.dtd" >
<svg xmlns="http://www.w3.org/2000/svg">
<metadata></metadata>
<defs>
<font id="webfontregular" horiz-adv-x="456" >
<font-face units-per-em="2048" ascent="1638" descent="-410" />
<missing-glyph horiz-adv-x="228" />
<glyph horiz-adv-x="2048" />
<glyph horiz-adv-x="2048" />
<glyph unicode="&#xd;" horiz-adv-x="228" />
<glyph unicode=" "  horiz-adv-x="228" />
<glyph unicode="&#x09;" horiz-adv-x="228" />
<glyph unicode="&#xa0;" horiz-adv-x="228" />
<glyph unicode="!" horiz-adv-x="273" d="M74 1122v344h121v-344l-29 -744h-63zM78 0v281h113v-281h-113z" />
<glyph unicode="&#x22;" horiz-adv-x="388" d="M45 1218v248h122v-248l-18 -273h-83zM225 1218v248h123v-248l-19 -273h-83z" />
<glyph unicode="#" d="M7 365v220h72l24 295h-96v221h114l32 390h89l-31 -390h88l31 390h93l-32 -390h55v-221h-73l-24 -295h97v-220h-115l-32 -390h-89l31 390h-89l-32 -390h-90l32 390h-55zM170 585h88l24 295h-89z" />
<glyph unicode="$" d="M28 411l104 28q0 -38 6 -68t18 -70q18 -58 40 -84v419q-79 56 -115.5 169.5t-36.5 275.5q0 161 41.5 273.5t110.5 130.5v99h58v-99q64 -18 101 -109q21 -49 34.5 -109t13.5 -130l-101 -33q0 55 -13 95.5t-35 64.5v-391q96 -64 130.5 -166t34.5 -268q0 -182 -43.5 -304.5 t-121.5 -152.5v-187h-58v182q-70 21 -113 129q-24 59 -38 130q-17 85 -17 175zM144 1093q0 -54 12.5 -98.5t39.5 -73.5v346q-23 -19 -37.5 -68.5t-14.5 -105.5zM254 203q30 14 48.5 68.5t18.5 131.5q0 67 -15.5 115t-51.5 75v-390z" />
<glyph unicode="%" horiz-adv-x="728" d="M36 1104q0 197 34.5 292t93.5 95q60 0 95 -93.5t35 -293.5q0 -197 -34.5 -292t-93.5 -95q-62 0 -96 93.5t-34 293.5zM123 1106q0 -75 3 -119t10 -73q11 -36 28 -36t28 36q13 52 13 192q0 143 -13 191q-9 37 -28 37q-17 0 -28 -36q-13 -52 -13 -192zM166 -56l313 1547h81 l-310 -1547h-84zM431 329q0 102 8 172t27 120q35 95 94 95q61 0 95.5 -95.5t34.5 -291.5t-35 -292t-93 -96q-62 0 -96.5 95.5t-34.5 292.5zM519 330q0 -143 13 -191q9 -37 28 -37q18 0 27 36q13 46 13 192q0 142 -12 192q-11 36 -28 36q-19 0 -28 -36q-13 -46 -13 -192z" />
<glyph unicode="&#x26;" horiz-adv-x="592" d="M36 402q0 142 33.5 254t100.5 195q-30 89 -45 169.5t-15 152.5q0 132 42 225t122 93q76 0 118.5 -96t42.5 -238q0 -88 -21 -169q-11 -42 -31.5 -85t-54.5 -96l82 -269q14 60 25 167l101 -58q-7 -67 -14.5 -121t-11.5 -77q-10 -59 -24 -104q17 -42 48 -97q28 -48 44 -69 l-68 -217q-49 60 -96 168q-34 -79 -75 -117.5t-95 -38.5q-110 0 -165 154q-43 117 -43 274zM151 412q0 -89 24 -147.5t64 -58.5q26 0 50 25t54 87l-115 353q-37 -47 -58 -118q-9 -35 -14 -69.5t-5 -71.5zM219 1182q0 -50 26 -126l27 -80l31 58q33 65 33 129q0 54 -15.5 92 t-44.5 38q-26 0 -41.5 -33.5t-15.5 -77.5z" />
<glyph unicode="'" horiz-adv-x="195" d="M37 1218v248h122v-248l-18 -273h-83z" />
<glyph unicode="(" horiz-adv-x="273" d="M43 531q0 287 39 547q35 225 88 413h76q-54 -303 -75 -515.5t-21 -450.5q0 -61 3 -123q9 -187 9 -213q0 -77 11 -167q16 -108 24.5 -171.5t24 -148.5t23.5 -133h-77q-61 231 -93 482t-32 480z" />
<glyph unicode=")" horiz-adv-x="273" d="M27 1491h76q59 -211 93 -453.5t34 -491.5q0 -109 -6 -216.5t-20 -231.5q-30 -266 -99 -529h-77q16 86 27 152t19 121q15 105 26 219l8 90q9 97 9 145q0 52 2.5 132.5t2.5 96.5q0 247 -20 450q-23 231 -75 516z" />
<glyph unicode="*" horiz-adv-x="319" d="M11 1166l24 176q53 -52 93 -117q0 66 -3 127.5t-6 138.5h71q-4 -75 -7.5 -146t-3.5 -122l35 39l66 70l21 -181q-41 -23 -103 -49l48 -135l23 -67l-61 -101l-54 223q-23 -102 -32 -140q-2 -6 -24 -90l-60 117q26 75 60 155l15 38q-9 3 -57 33l-22 14q-15 10 -23 17z" />
<glyph unicode="+" horiz-adv-x="478" d="M34 592v263h154v381h102v-381h154v-263h-154v-381h-102v381h-154z" />
<glyph unicode="," horiz-adv-x="228" d="M47 -211q33 27 48 76t15 135h-54v281h112v-201q0 -129 -6.5 -179t-13.5 -80t-20 -60q-22 -54 -59 -88z" />
<glyph unicode="-" horiz-adv-x="273" d="M26 391v281h221v-281h-221z" />
<glyph unicode="." horiz-adv-x="228" d="M59 0v281h112v-281h-112z" />
<glyph unicode="/" horiz-adv-x="228" d="M-1 -25l145 1516h84l-146 -1516h-83z" />
<glyph unicode="0" d="M34 726q0 410 58 596q48 150 133 150t133 -152q57 -180 57 -597q0 -415 -57 -598q-48 -150 -133 -150q-86 0 -138.5 165.5t-52.5 585.5zM152 723q0 -262 10 -355q5 -45 11.5 -78t14.5 -50q17 -32 37 -32t36 32t26.5 128.5t10.5 354.5q0 253 -11 353t-27 131.5t-35 31.5 q-20 0 -36 -32.5t-25 -116.5q-12 -108 -12 -367z" />
<glyph unicode="1" d="M65 846v255q45 37 95.5 135.5t70.5 235.5h91v-1472h-112v1059q-62 -145 -145 -213z" />
<glyph unicode="2" d="M20 0q0 70 10 136.5t29 143.5q31 131 126 352q38 87 60.5 147t32.5 93q24 87 24 172q0 93 -20.5 144t-55.5 51t-56 -53q-10 -26 -17 -71.5t-7 -104.5l-112 28q0 110 17 194.5t45 138.5q54 101 132 101q86 0 136 -116.5t50 -291.5q0 -105 -13.5 -191t-45.5 -185 q-9 -29 -27 -75.5t-46.5 -111.5t-42 -97t-25.5 -65q-15 -43 -23 -78h223v-261h-394z" />
<glyph unicode="3" d="M31 389l109 33q0 -49 7.5 -89.5t20.5 -69.5q23 -55 55 -55q34 0 58 66t24 178q0 108 -23 169t-55 61q-22 0 -52 -21l13 229q47 0 70 51t23 138q0 75 -17.5 118.5t-46.5 43.5q-30 0 -49 -50q-12 -28 -18.5 -63.5t-6.5 -82.5l-104 44q0 58 11 119q7 39 22 93 q21 78 60.5 124.5t87.5 46.5q82 0 133 -132q41 -109 41 -244q0 -191 -84 -308q50 -27 80 -120.5t30 -227.5q0 -193 -56.5 -329t-139.5 -136q-79 0 -132 114q-29 62 -45 135.5t-16 164.5z" />
<glyph unicode="4" d="M15 295v246l255 931h94v-930h73v-247h-73v-295h-109v295h-240zM120 542h135v501z" />
<glyph unicode="5" d="M36 377l112 29q0 -46 7 -81t22 -70q23 -55 54 -55q35 0 59.5 71.5t24.5 215.5q0 134 -24 202t-63 68q-48 0 -87 -107l-91 33l58 763h297v-263h-212l-18 -249q38 47 77 47q75 0 127 -136q26 -69 39 -155t13 -198q0 -179 -42 -323q-57 -194 -159 -194q-81 0 -132 109 q-28 60 -45 132t-17 161z" />
<glyph unicode="6" d="M35 713q0 404 59.5 581.5t154.5 177.5q66 0 111 -94q25 -53 40.5 -120t15.5 -151l-109 -30q0 39 -5.5 70.5t-15.5 53.5q-17 40 -44 40q-35 0 -60 -80q-12 -41 -21.5 -129.5t-9.5 -203.5q42 124 105 124q69 0 119.5 -132.5t50.5 -347.5q0 -226 -53 -361.5t-135 -135.5 q-89 0 -146 172.5t-57 565.5zM161 494q0 -137 25.5 -211.5t57.5 -74.5q31 0 51.5 61.5t20.5 199.5q0 143 -22.5 209.5t-55.5 66.5t-55 -63t-22 -188z" />
<glyph unicode="7" d="M35 1185v261h384v-204q-45 -114 -97 -336q-48 -219 -75 -466q-13 -123 -19 -231t-6 -209h-108q0 148 12.5 303t37.5 317q46 314 126 565h-255z" />
<glyph unicode="8" d="M33 419q0 117 23 216.5t75 155.5q-43 45 -63 127t-20 176q0 164 45.5 271t130.5 107q84 0 130 -107q22 -53 34 -121t12 -150q0 -101 -21 -180t-60 -123q49 -47 74 -143q12 -44 19 -100t7 -117q0 -204 -52.5 -330.5t-137.5 -126.5q-79 0 -133 105q-63 123 -63 340z M144 446q0 -115 24 -180.5t59 -65.5q36 0 58.5 63t22.5 180q0 102 -23.5 165t-58.5 63q-41 0 -61.5 -71.5t-20.5 -153.5zM154 1074q0 -84 19.5 -131t50.5 -47q32 0 51 47t19 132q0 79 -18.5 126.5t-50.5 47.5q-33 0 -52 -48.5t-19 -126.5z" />
<glyph unicode="9" d="M26 976q0 220 53 358t135 138q89 0 146.5 -173.5t57.5 -566.5q0 -401 -60 -579.5t-155 -178.5q-69 0 -111 91q-24 52 -38 114q-17 75 -17 160l109 30q0 -38 5.5 -69.5t15.5 -53.5q17 -40 44 -40q35 0 59 80q14 45 23 129.5t9 202.5q-42 -123 -106 -123q-69 0 -119.5 134 t-50.5 347zM136 976q0 -138 23 -206.5t56 -68.5q32 0 54.5 64t22.5 188q0 133 -25 209.5t-58 76.5q-31 0 -52 -61t-21 -202z" />
<glyph unicode=":" horiz-adv-x="273" d="M80 0v281h113v-281h-113zM80 781v281h113v-281h-113z" />
<glyph unicode=";" horiz-adv-x="273" d="M68 -211q33 27 48 78q8 27 12 57.5t4 75.5h-55v281h113v-201q0 -121 -8 -190.5t-31.5 -126t-60.5 -90.5zM77 781v281h113v-281h-113z" />
<glyph unicode="&#x3c;" horiz-adv-x="478" d="M38 604v242l402 435v-285l-280 -268l280 -278v-283z" />
<glyph unicode="=" horiz-adv-x="478" d="M34 372v259h410v-259h-410zM34 816v258h410v-258h-410z" />
<glyph unicode="&#x3e;" horiz-adv-x="478" d="M38 166v283l281 276l-281 273v281l402 -435v-240z" />
<glyph unicode="?" horiz-adv-x="500" d="M42 1052q0 88 15.5 163t45.5 141q57 125 149 125q97 0 154 -126.5t57 -294.5q0 -92 -21 -176q-11 -45 -32.5 -98.5t-57.5 -128.5t-44 -118q-4 -19 -6 -60.5t-2 -100.5h-102v67q0 125 16.5 204.5t65 177t59.5 133.5q15 53 15 108q0 80 -26.5 139.5t-70.5 59.5 q-42 0 -72 -61q-18 -37 -27 -76q-12 -50 -12 -110zM198 0v281h113v-281h-113z" />
<glyph unicode="@" horiz-adv-x="799" d="M24 483q0 280 53.5 523t146 364.5t210.5 121.5q101 0 179 -97t120 -278.5t42 -395.5q0 -254 -63 -461q-78 -260 -202 -260q-33 0 -49.5 28.5t-22.5 85.5q-48 -114 -109 -114q-66 0 -111 114q-21 57 -32 133t-11 172q0 238 53 429q63 236 164 236q71 0 105 -136l10 111 h105l-60 -717l-6 -88q0 -21 5 -38q5 -12 11 -12q19 0 50 58q41 75 66 204q11 59 18 129.5t7 135.5q0 245 -71.5 411t-198.5 166q-107 0 -183 -110.5t-114.5 -312t-38.5 -416.5q0 -212 42.5 -384t119.5 -252t177 -80q96 0 163.5 65.5t111.5 200.5h85q-39 -203 -123 -318 q-95 -132 -231 -132q-132 0 -228.5 112t-143 330t-46.5 472zM278 430q0 -125 20.5 -186t51.5 -61q22 0 43 28q15 20 30 63q21 60 36 178q8 55 12 111.5t4 106.5q0 111 -21 172.5t-53 61.5q-34 0 -64 -67q-14 -32 -24.5 -78t-19 -112.5t-12 -118t-3.5 -98.5z" />
<glyph unicode="A" horiz-adv-x="592" d="M0 0l228 1466h126l234 -1466h-128l-52 333h-234l-48 -333h-126zM210 580h160l-80 544z" />
<glyph unicode="B" horiz-adv-x="592" d="M60 0v1466h234q69 0 104 -15q34 -13 61 -59t45 -122.5t18 -172.5q0 -104 -21.5 -189t-60.5 -129q54 -39 82.5 -131t28.5 -223q0 -101 -18.5 -195.5t-51 -150.5t-79.5 -69q-16 -4 -51 -7t-91 -3h-200zM178 247h110q63 0 81 9q27 12 43.5 59t16.5 124q0 67 -12 111 t-37 66.5t-106 22.5h-96v-392zM178 883h78h16h13q46 0 57 5q30 9 48 52q17 45 17 115q0 66 -15 109t-44 53q-20 5 -102 5h-68v-339z" />
<glyph unicode="C" horiz-adv-x="592" d="M39 720q0 365 76 568t198 203q107 0 175 -159q39 -93 60 -270l-117 -70q-11 116 -43.5 181t-80.5 65q-64 0 -105 -116.5t-41 -379.5q0 -279 39.5 -396.5t104.5 -117.5q46 0 79.5 74.5t50.5 236.5l115 -91q-27 -241 -88.5 -357t-155.5 -116q-117 0 -192 199.5t-75 545.5z " />
<glyph unicode="D" horiz-adv-x="592" d="M59 0v1466h217q74 0 111 -28q51 -37 89 -135q34 -92 56 -238q9 -70 14 -156t5 -190q0 -180 -18 -312q-23 -164 -63 -259q-30 -74 -83 -117q-40 -31 -105 -31h-223zM178 247h88q50 0 72 14q27 17 46.5 59.5t31.5 142t12 269.5q0 169 -12 259.5t-33 143.5q-23 51 -55 69 q-25 14 -97 14h-53v-971z" />
<glyph unicode="E" horiz-adv-x="546" d="M60 0v1466h434v-248h-316v-325h294v-247h-294v-399h328v-247h-446z" />
<glyph unicode="F" horiz-adv-x="500" d="M60 0v1466h402v-248h-283v-347h245v-248h-245v-623h-119z" />
<glyph unicode="G" horiz-adv-x="637" d="M39 738q0 227 38.5 406t112.5 274q58 73 140 73q110 0 171 -114t79 -317l-118 -55q-12 108 -46.5 170.5t-85.5 62.5q-76 0 -122.5 -122.5t-46.5 -365.5q0 -263 46 -392.5t122 -129.5q37 0 75 36q17 17 34 40t30 49v186h-136v247h256v-584q-37 -90 -108 -158.5t-143 -68.5 q-92 0 -160 96t-103 277.5t-35 389.5z" />
<glyph unicode="H" horiz-adv-x="592" d="M60 0v1466h118v-577h232v577h119v-1466h-119v641h-232v-641h-118z" />
<glyph unicode="I" horiz-adv-x="228" d="M56 0v1466h118v-1466h-118z" />
<glyph unicode="J" d="M14 453l112 32q0 -59 4 -104.5t10 -73.5q20 -79 59 -79q40 0 56 55.5t16 235.5v947h118v-928q0 -90 -3 -159t-10 -121q-16 -125 -61.5 -204t-119.5 -79q-86 0 -133.5 122t-47.5 356z" />
<glyph unicode="K" horiz-adv-x="592" d="M61 0v1466h119v-651l239 651h159l-221 -571l233 -895h-153l-161 688l-96 -245v-443h-119z" />
<glyph unicode="L" horiz-adv-x="500" d="M63 0v1454h118v-1207h295v-247h-413z" />
<glyph unicode="M" horiz-adv-x="682" d="M58 0v1466h177l107 -1000l105 1000h177v-1466h-110v1154l-116 -1154h-114l-116 1154v-1154h-110z" />
<glyph unicode="N" horiz-adv-x="592" d="M61 0v1466h115l240 -979v979h110v-1466h-119l-236 956v-956h-110z" />
<glyph unicode="O" horiz-adv-x="637" d="M36 724q0 115 6 206.5t20 169.5q11 56 24 104.5t31 96.5q35 89 76 132q55 58 126 58q129 0 207 -201t78 -559q0 -356 -77 -556t-206 -200q-132 0 -208.5 200t-76.5 549zM158 734q0 -250 45.5 -378t116.5 -128t116.5 126.5t45.5 383.5q0 250 -44.5 375t-117.5 125 t-117.5 -126t-44.5 -378z" />
<glyph unicode="P" horiz-adv-x="546" d="M60 0v1466h190q108 0 140 -22q50 -33 85 -144q16 -53 25 -126t9 -159q0 -132 -20 -227q-10 -46 -22 -82t-28 -63q-30 -51 -61 -69q-42 -21 -123 -21h-77v-553h-118zM178 802h65q70 0 93 22.5t37 72.5t14 114q0 81 -18.5 131.5t-48.5 65.5q-23 10 -85 10h-57v-416z" />
<glyph unicode="Q" horiz-adv-x="637" d="M36 733q0 360 77 559t208 199q129 0 207 -200q38 -100 57 -238t19 -320q0 -188 -19.5 -319.5t-52.5 -227.5q41 -75 94 -124l-43 -209q-26 19 -53 55l-78 130q-59 -63 -128 -63q-134 0 -211 198t-77 560zM158 733q0 -259 44.5 -385.5t113.5 -126.5q25 0 49 21 q-33 54 -73 92l33 169q59 -49 111 -150q23 64 34.5 160.5t11.5 219.5q0 253 -44.5 379t-117.5 126q-71 0 -116.5 -126.5t-45.5 -378.5z" />
<glyph unicode="R" horiz-adv-x="592" d="M60 0v1466h249q94 0 137 -40t68.5 -141t25.5 -230q0 -165 -39 -272.5t-116 -135.5q38 -55 62 -118.5t69 -242.5l71 -286h-141l-86 319q-24 91 -38.5 141.5t-23.5 73.5q-18 46 -36.5 62t-59.5 16h-24v-612h-118zM178 846h88q85 0 106 18t33.5 62t12.5 110q0 69 -16 119 q-16 44 -45 58q-15 5 -86 5h-93v-372z" />
<glyph unicode="S" horiz-adv-x="546" d="M30 477l115 28q0 -66 13 -125q10 -47 29 -88q32 -68 86 -68q56 0 85.5 60.5t29.5 141.5q0 50 -12 87t-43 65q-17 16 -95 64q-94 58 -133 145q-54 120 -54 295q0 112 25 209t73 148.5t116 51.5q111 0 166 -121q28 -60 43.5 -142t15.5 -181l-119 -13q0 56 -8.5 94t-24.5 68 q-24 50 -74 50q-53 0 -81 -53q-19 -32 -19 -91q0 -50 19 -92t106 -93.5t128.5 -106t65 -150t23.5 -233.5q0 -127 -27.5 -236t-79 -163t-127.5 -54q-111 0 -171 128q-31 68 -51 164t-20 211z" />
<glyph unicode="T" horiz-adv-x="500" d="M18 1218v248h466v-248h-174v-1218h-118v1218h-174z" />
<glyph unicode="U" horiz-adv-x="592" d="M59 684v782h118v-794q0 -94 1 -155.5t4 -89.5q0 -44 9.5 -78.5t26.5 -66.5q29 -54 78 -54q50 0 76 51q14 29 22.5 59.5t8.5 67.5q0 28 2.5 117t2.5 132v811h118v-770q0 -110 -4.5 -239.5t-4.5 -133.5q-11 -113 -36.5 -187t-68 -117.5t-112.5 -43.5q-84 0 -128 48.5 t-68.5 125t-33.5 163.5q0 16 -5.5 163.5t-5.5 208.5z" />
<glyph unicode="V" horiz-adv-x="546" d="M0 1466h128l148 -1085l144 1085h126l-210 -1466h-127z" />
<glyph unicode="W" horiz-adv-x="773" d="M3 1466h121l88 -1007l108 1007h140l103 -1024l90 1024h119l-142 -1466h-126l-116 1096l-117 -1096h-128z" />
<glyph unicode="X" horiz-adv-x="546" d="M0 0l200 765l-181 701h138l118 -471l115 471h137l-182 -712l200 -754h-143l-130 507l-130 -507h-142z" />
<glyph unicode="Y" horiz-adv-x="546" d="M-1 1466h139l138 -580l135 580h136l-215 -851v-615h-118v617z" />
<glyph unicode="Z" horiz-adv-x="500" d="M9 0v267l308 951h-273v248h429v-230l-321 -989h333v-247h-476z" />
<glyph unicode="[" horiz-adv-x="273" d="M58 -413v1879h200v-221h-93v-1437h93v-221h-200z" />
<glyph unicode="\" horiz-adv-x="228" d="M-1 1491h83l146 -1516h-84z" />
<glyph unicode="]" horiz-adv-x="273" d="M15 -192h93v1439h-93v219h199v-1879h-199v221z" />
<glyph unicode="^" horiz-adv-x="478" d="M46 692l150 799h90l146 -799h-114l-79 489l-79 -489h-114z" />
<glyph unicode="_" d="M-8 -223h468v-182h-468v182z" />
<glyph unicode="`" horiz-adv-x="273" d="M17 1491h126l55 -299h-71z" />
<glyph unicode="a" d="M29 290q0 87 17.5 159t48.5 109.5t89 65.5q80 37 109 69v28q0 82 -16 115q-15 35 -60 35q-30 0 -47 -29.5t-27 -103.5l-102 46q16 152 58.5 227t125.5 75q74 0 111 -44.5t52 -113.5q8 -35 12 -95t4 -156l-2 -328q0 -139 6 -207q0 -27 2.5 -46.5t17.5 -95.5h-111l-11 83 l-4 33q-28 -68 -61 -104t-71 -36q-66 0 -103.5 89.5t-37.5 224.5zM142 319q0 -61 17.5 -103t44.5 -42q30 0 58 50q11 19 17 41.5t10 53t4 135.5v56q-18 -16 -67 -42t-62 -50q-22 -38 -22 -99z" />
<glyph unicode="b" horiz-adv-x="500" d="M54 0v1466h112v-528q53 148 124 148q77 0 128 -140.5t51 -403.5q0 -272 -52.5 -419t-125.5 -147q-36 0 -71 44.5t-62 135.5v-156h-104zM166 554q0 -168 20 -244q30 -112 78 -112q38 0 64 79.5t26 250.5q0 181 -26.5 262t-67.5 81t-67.5 -79.5t-26.5 -237.5z" />
<glyph unicode="c" d="M34 530q0 265 55 410.5t151 145.5q76 0 123 -83.5t66 -254.5l-111 -50q0 41 -6.5 69.5t-18.5 55.5q-20 42 -51 42q-43 0 -67.5 -72.5t-24.5 -242.5q0 -191 25.5 -268t67.5 -77q32 0 53 45q12 27 20 65.5t8 91.5l111 -47q-16 -188 -66 -286t-131 -98q-93 0 -148.5 146.5 t-55.5 407.5z" />
<glyph unicode="d" horiz-adv-x="500" d="M34 535q0 137 12 237.5t38 172.5q51 141 129 141q71 0 123 -148v528h112v-1466h-104v156q-25 -88 -61 -134t-72 -46q-72 0 -124.5 146.5t-52.5 412.5zM148 554q0 -171 19 -246q27 -110 76 -110q39 0 66 82.5t27 246.5q0 94 -6 157.5t-20 105.5q-27 81 -68 81 q-39 0 -67 -80q-13 -40 -20 -98.5t-7 -138.5z" />
<glyph unicode="e" d="M26 523q0 264 55.5 413.5t139.5 149.5q95 0 149 -157q27 -75 40 -196t13 -283h-282q0 -62 7 -110.5t20 -84.5q27 -69 65 -69q27 0 44 34t28 118l112 -47q-11 -78 -28 -136t-41 -99q-45 -80 -116 -80q-110 0 -164 181q-42 144 -42 366zM143 622h168q0 118 -24.5 183.5 t-58.5 65.5q-37 0 -61 -66.5t-24 -182.5z" />
<glyph unicode="f" horiz-adv-x="273" d="M10 841v221h62v80q0 129 11.5 197t42.5 110t77 42q47 0 94 -36l-15 -196q-29 16 -52 16q-25 0 -35.5 -28.5t-10.5 -109.5v-75h84v-221h-84v-841h-112v841h-62z" />
<glyph unicode="g" horiz-adv-x="500" d="M34 537q0 137 12 237t39 171q51 141 128 141q78 0 130 -173v149h105v-953q0 -186 -12 -281q-6 -44 -14.5 -81t-20.5 -65q-22 -51 -60 -83q-38 -30 -95 -30q-106 0 -152 92.5t-46 234.5v34l129 -39q0 -28 3.5 -45t11.5 -32q15 -30 50 -30q43 0 66 33q15 20 21.5 63 t6.5 137v155q-51 -172 -128 -172q-86 0 -135 181q-39 143 -39 356zM149 553q0 -170 26 -248t65 -78q41 0 69.5 81t28.5 238q0 165 -27.5 245t-68.5 80q-40 0 -66.5 -79.5t-26.5 -238.5z" />
<glyph unicode="h" horiz-adv-x="500" d="M58 0v1466h113v-539q54 159 130 159q38 0 69 -35.5t47 -92t22 -124.5t6 -211v-623h-112v561q0 169 -6.5 213t-23 70.5t-40.5 26.5q-28 0 -50 -34t-32 -100.5t-10 -204.5v-532h-113z" />
<glyph unicode="i" horiz-adv-x="228" d="M59 0v1062h112v-1062h-112zM59 1206v260h112v-260h-112z" />
<glyph unicode="j" horiz-adv-x="228" d="M-38 -401l20 240l15 -6l13 -3q16 0 27.5 18.5t15 44.5t3.5 156v1013h113v-1029q0 -198 -11 -284.5t-41 -133t-77 -46.5q-13 0 -19 1.5t-17 6.5q-18 6 -42 22zM56 1206v260h113v-260h-113z" />
<glyph unicode="k" d="M55 0v1466h112v-778l132 374h138l-145 -388l156 -674h-122l-106 477l-53 -137v-340h-112z" />
<glyph unicode="l" horiz-adv-x="228" d="M59 0v1466h112v-1466h-112z" />
<glyph unicode="m" horiz-adv-x="728" d="M50 0v1062h104v-145q56 169 132 169q41 0 71 -42q14 -20 27 -52.5t22 -74.5q29 84 61 126.5t69 42.5q47 0 79 -47t49 -140q5 -32 8 -87.5t3 -132.5v-679h-112v607q0 157 -12 204q-15 60 -48 60q-23 0 -44 -36t-30 -105.5t-9 -219.5v-510h-113v582q0 153 -6 199t-19 68 t-34 22q-26 0 -46.5 -35t-29.5 -101t-9 -219v-516h-113z" />
<glyph unicode="n" horiz-adv-x="500" d="M58 0v1062h104v-156q56 180 140 180q38 0 68 -33t47 -86q14 -49 21 -116.5t7 -190.5v-660h-112v542q0 77 -2 135.5t-5 86.5q-7 50 -23.5 78.5t-39.5 28.5q-28 0 -51.5 -40t-32.5 -106t-9 -244v-481h-112z" />
<glyph unicode="o" horiz-adv-x="500" d="M33 546q0 139 27.5 269.5t78 200.5t113.5 70q95 0 157 -158t62 -394q0 -238 -62 -398t-157 -160q-58 0 -111 66t-80.5 193.5t-27.5 310.5zM148 531q0 -156 30 -241t74 -85t74 84t30 244q0 156 -30 240t-74 84t-74 -84t-30 -242z" />
<glyph unicode="p" horiz-adv-x="500" d="M56 -404v1466h104v-156q21 81 56 130.5t77 49.5q74 0 125.5 -144t51.5 -405q0 -267 -51.5 -414t-126.5 -147q-35 0 -63.5 35t-60.5 120v-535h-112zM167 549q0 -180 28.5 -265t68.5 -85q39 0 65.5 79t26.5 257q0 165 -27 247t-67 82q-41 0 -68 -79t-27 -236z" />
<glyph unicode="q" horiz-adv-x="500" d="M36 543q0 252 51.5 397.5t129.5 145.5q41 0 72.5 -44.5t55.5 -136.5v157h104v-1466h-113v534q-21 -69 -54 -111.5t-71 -42.5q-73 0 -119 136q-56 160 -56 431zM151 528q0 -173 26.5 -251.5t65.5 -78.5q38 0 68 87q15 45 22 106.5t7 152.5q0 161 -26.5 241.5t-66.5 80.5 t-68 -81t-28 -257z" />
<glyph unicode="r" horiz-adv-x="319" d="M54 0v1062h104v-151q27 107 48 141q23 34 49 34q39 0 74 -53l-35 -245q-28 46 -52 46q-23 0 -40 -33t-26 -117q-4 -39 -7 -133t-3 -223v-328h-112z" />
<glyph unicode="s" d="M19 303l113 43q8 -82 29 -125q23 -42 62 -42q43 0 65 40q15 27 15 75q0 33 -7.5 52t-37.5 38q-136 75 -173 137q-50 86 -50 239q0 139 43.5 232.5t135.5 93.5q88 0 129 -69.5t59 -211.5l-106 -49q-8 62 -26 95q-20 33 -54 33q-45 0 -64 -31q-13 -23 -13 -57q0 -29 11 -51 q15 -26 105.5 -78t125.5 -127t35 -208q0 -146 -48.5 -251t-144.5 -105q-86 0 -137 87.5t-67 239.5z" />
<glyph unicode="t" horiz-adv-x="273" d="M12 838v224h52v211l113 164v-375h77v-224h-77v-428q0 -136 2 -152q0 -9 2.5 -16.5t8.5 -19t18 -13.5q15 0 45 27l10 -218q-39 -42 -89 -42q-30 0 -54.5 25.5t-36.5 65.5q-6 24 -10.5 50.5t-4.5 59.5q-4 43 -4 198v463h-52z" />
<glyph unicode="u" horiz-adv-x="500" d="M56 390v672h113v-488q0 -222 6 -273.5t22 -81t42 -29.5q29 0 51.5 38.5t31.5 98.5q4 25 6 98.5t2 188.5v448h113v-1062h-105v159q-22 -83 -60.5 -133t-79.5 -50q-43 0 -77 46.5t-49 132.5q-8 45 -12 100t-4 135z" />
<glyph unicode="v" d="M4 1062h118l80 -542l24 -181l11 91l12 90l81 542h116l-169 -1062h-101z" />
<glyph unicode="w" horiz-adv-x="637" d="M4 1062h109l79 -696l74 696h108l71 -696l81 696h111l-137 -1062h-108l-73 683l-72 -683h-109z" />
<glyph unicode="x" d="M5 0l153 547l-147 515h137l76 -292l79 292h132l-144 -503l157 -559h-138l-86 329l-88 -329h-131z" />
<glyph unicode="y" d="M6 1062h119l102 -754l99 754h116l-150 -1022l-26 -185q-16 -99 -29.5 -145t-30 -76t-42.5 -47.5t-58 -17.5q-33 0 -63 17l-10 220q28 -13 47 -13q40 0 58 55.5t29 148.5z" />
<glyph unicode="z" horiz-adv-x="410" d="M14 0v219l159 457q42 120 58 159l-52 -4l-150 -2v233h351v-199l-162 -468l-57 -155l58 7h174v-247h-379z" />
<glyph unicode="{" horiz-adv-x="319" d="M24 410v240q29 3 43 20.5t27 61.5q7 29 10.5 51.5t3.5 55.5q0 10 2 65t2 102q0 199 7 270q4 38 10 69t16 54q18 46 55 74q24 18 76 18h22v-239q-45 0 -57.5 -12.5t-18.5 -37.5t-6 -88l-4 -239q0 -91 -9.5 -156.5t-21.5 -104t-40 -84.5q24 -35 38 -80q7 -20 13 -49t11 -65 t7.5 -75.5t2.5 -94.5l3 -212q0 -65 6 -91.5t19.5 -40t56.5 -13.5v-240h-22q-54 0 -82 22q-30 21 -49.5 71t-26.5 124q0 40 -1 66q-5 131 -5 165q0 186 -7 239q-7 80 -27 114q-16 34 -54 40z" />
<glyph unicode="|" horiz-adv-x="229" d="M70 -431v1922h90v-1922h-90z" />
<glyph unicode="}" horiz-adv-x="319" d="M18 -191q43 0 56 14q13 11 19 39q3 12 5 33t2 53l3 233q0 51 2.5 89t8 73.5t10.5 61.5t13 48q15 44 38 77q-29 47 -42 90t-20 83.5t-7 88.5q0 9 -3 111t-3 197q0 74 -5 98.5t-18 39t-59 14.5v239h21q54 0 83 -21t48.5 -71.5t26.5 -121t7 -234.5q0 -182 7.5 -251.5 t25.5 -102.5t55 -39v-240q-29 -3 -43.5 -20.5t-26.5 -62.5q-6 -25 -10.5 -50.5t-4.5 -55.5q0 -40 -1 -83t-2 -83q0 -198 -5.5 -253.5t-11.5 -86.5t-16 -54q-17 -44 -55 -74q-24 -18 -77 -18h-21v240z" />
<glyph unicode="~" horiz-adv-x="478" d="M27 519v259q50 138 118 138q25 0 47 -13q12 -7 29 -22t47 -46q55 -55 74 -55q22 0 52 34t58 110v-270q-17 -46 -51 -89t-69 -43q-19 0 -38.5 12t-60.5 57q-62 67 -97 67q-57 0 -109 -139z" />
<glyph unicode="&#xa1;" horiz-adv-x="273" d="M78 -63l29 741h63l30 -741v-344h-122v344zM82 781v281h113v-281h-113z" />
<glyph unicode="&#xa2;" d="M34 535q0 259 55.5 405t149.5 146q18 0 38 -6l45 376l49 -35l-45 -371q76 -72 103 -302l-111 -50q0 33 -5 59.5t-15 53.5l-73 -602l18 -4q31 0 52 45q11 26 20 66.5t9 90.5l110 -47q-16 -188 -65.5 -286t-130.5 -98q-20 0 -40 7l-47 -386l-49 34l46 385q-27 30 -48.5 79 t-36.5 118.5t-22 145.5t-7 176zM149 549q0 -193 30 -280l72 595l-10 1q-42 0 -67 -72t-25 -244z" />
<glyph unicode="&#xa3;" d="M5 217q46 83 65.5 174.5t19.5 172.5v21v17q-2 13 -2 19h-83v221h63q-8 55 -12 116.5t-4 122.5q0 112 23.5 209t67.5 149t95 52q78 0 126 -100q25 -54 41 -125.5t16 -159.5l-109 -40q0 51 -7 87t-20 67q-20 47 -50 47q-32 0 -53 -54q-10 -26 -16 -60t-6 -74q0 -42 6 -111 l14 -126h125v-221h-106l1 -44q0 -77 -12 -145t-49 -177q22 28 55 28q16 0 24 -3t34 -19.5t41.5 -24t24.5 -7.5q32 0 82 56l43 -238q-11 -15 -23 -26t-30 -24q-31 -20 -58 -20q-36 0 -96.5 42.5t-87.5 42.5q-49 0 -100 -87z" />
<glyph unicode="&#xa4;" d="M18 1072l66 178l55 -136q21 28 43 42.5t44 14.5q24 0 45 -13.5t43 -43.5l53 134l67 -169l-53 -133q8 -38 12 -64q1 -9 6 -52.5t5 -101.5q0 -56 -4.5 -96.5t-8.5 -68t-10 -53.5l54 -133l-67 -171l-54 136q-20 -26 -42 -43q-23 -14 -46 -14t-44 14t-42 42l-52 -131l-68 168 l52 132q-8 38 -10.5 55.5t-7.5 61t-5 101.5q0 25 2.5 64t2.5 46q3 24 7 51.5t10 51.5zM146 728q0 -85 23.5 -143.5t56.5 -58.5q34 0 58 59q11 29 17 64.5t6 78.5q0 85 -23.5 143.5t-57.5 58.5q-33 0 -57 -59q-11 -29 -17 -64.5t-6 -78.5z" />
<glyph unicode="&#xa5;" d="M0 1466h124l80 -426q15 -79 21 -141q4 32 9 65.5t13 75.5l81 426h124l-126 -631h106v-221h-151v-120h151v-221h-151v-273h-112v273h-149v221h149v120h-149v221h105z" />
<glyph unicode="&#xa6;" horiz-adv-x="229" d="M70 360h90v-791h-90v791zM70 701v790h90v-790h-90z" />
<glyph unicode="&#xa7;" d="M24 625q0 96 18 182q10 45 22.5 77t33.5 61q-20 52 -31 110q-4 24 -7 55.5t-3 58.5q0 135 42 228.5t119 93.5q78 0 123 -94q25 -52 39 -111.5t14 -131.5l-110 -29q0 71 -17 111.5t-44 40.5q-26 0 -39.5 -28.5t-13.5 -64.5q0 -47 18 -94q10 -24 82 -142q36 -56 57.5 -94 t34.5 -66q34 -69 49.5 -142.5t15.5 -160.5q0 -92 -18 -171.5t-55 -142.5q23 -53 36 -118t13 -136q0 -146 -44.5 -247t-127.5 -101q-80 0 -128 99q-25 52 -41 119.5t-16 144.5l110 33q0 -43 7 -75.5t20 -59.5q20 -46 51 -46q27 0 42.5 35t15.5 83q0 46 -14 80.5t-108 185.5 q-90 143 -118 240.5t-28 216.5zM126 680q0 -100 54 -192l114 -195q8 17 14.5 36.5t11.5 39.5q9 36 9 71q0 32 -9 66.5t-51 111.5l-109 198q-13 -19 -23.5 -55t-10.5 -81z" />
<glyph unicode="&#xa8;" horiz-adv-x="273" d="M2 1250v241h96v-241h-96zM174 1250v241h97v-241h-97z" />
<glyph unicode="&#xa9;" horiz-adv-x="604" d="M-4 730q0 201 41 383.5t114 282.5t152 100t151 -99t113.5 -283.5t41.5 -383.5q0 -203 -40 -381.5t-113 -281.5t-153 -103t-153 102t-113.5 284t-40.5 380zM57 730q0 -157 32.5 -305t91 -229t122.5 -81q63 0 121.5 80.5t91.5 227.5t33 307t-32.5 307t-91.5 227.5 t-122 80.5q-64 0 -122.5 -79.5t-91 -226.5t-32.5 -309zM152 723q0 64 5 120t15 110q18 98 54.5 149.5t81.5 51.5q50 0 82 -57.5t52 -185.5l-65 -38q-10 70 -28.5 104.5t-42.5 34.5q-36 0 -60 -69q-11 -33 -17 -86.5t-6 -127.5q0 -147 23 -215.5t54 -68.5q26 0 46.5 39 t30.5 132l65 -54q-15 -125 -50.5 -192.5t-84.5 -67.5q-69 0 -112 112t-43 309z" />
<glyph unicode="&#xaa;" horiz-adv-x="303" d="M15 959q0 67 12 115q13 46 37 74q16 16 76 47q31 16 50 33l-1 21q0 49 -8 67t-32 18q-21 0 -29.5 -14t-17.5 -68l-76 38q9 100 36.5 150.5t84.5 50.5q59 0 89 -39q18 -23 29 -89q6 -39 6 -154v-239q0 -51 1 -82t2 -58q0 -20 1.5 -31t7.5 -38h-76l-9 71q-35 -89 -86 -89 q-45 0 -72 60q-25 63 -25 156zM98 974q0 -30 10 -56q12 -24 28 -25q23 0 38 41q8 22 12 50.5t4 70.5v40q-9 -12 -25 -21q-44 -23 -51 -35q-16 -23 -16 -65z" />
<glyph unicode="&#xab;" d="M38 532l127 451h88l-104 -451l104 -462h-88zM195 532l127 451h88l-104 -451l104 -462h-88z" />
<glyph unicode="&#xac;" horiz-adv-x="478" d="M34 817v257h410v-698h-103v441h-307z" />
<glyph unicode="&#xad;" horiz-adv-x="273" d="M26 391v281h221v-281h-221z" />
<glyph unicode="&#xae;" horiz-adv-x="604" d="M-4 730q0 200 41.5 384t114 283t151.5 99t151 -98t113.5 -283t41.5 -385q0 -203 -40 -381.5t-113 -281.5t-153 -103t-153 102t-113.5 284t-40.5 380zM57 730q0 -160 32 -305t91.5 -228.5t122.5 -83.5q65 0 123 82.5t91 227.5q15 71 24 150.5t9 156.5q0 157 -33.5 307.5 t-92 229.5t-121.5 79t-121 -79t-91.5 -226.5t-33.5 -310.5zM164 320v813h66q96 0 104 -2q33 -6 51 -33q17 -23 30 -76t13 -118q0 -85 -22.5 -148t-65.5 -80q16 -15 22 -28t12 -30.5t11 -34.5l24 -99l39 -164h-82l-27 132q-28 132 -46 167t-45 35h-18v-334h-66zM230 782h27 q59 0 71.5 10.5t21.5 38.5q4 14 6 28.5t2 34.5q0 12 -0.5 26t-7.5 34q-7 26 -22 38t-71 12h-27v-222z" />
<glyph unicode="&#xaf;" horiz-adv-x="452" d="M-8 1552v183h468v-183h-468z" />
<glyph unicode="&#xb0;" horiz-adv-x="328" d="M34 1172q0 130 37 224.5t91 94.5q53 0 90.5 -94t37.5 -225q0 -130 -38 -224.5t-90 -94.5t-90 93.5t-38 225.5zM101 1172q0 -63 18 -108t43 -45t43 45t18 108t-18 108t-43 45t-43 -45t-18 -108z" />
<glyph unicode="&#xb1;" horiz-adv-x="450" d="M20 0v263h410v-263h-410zM20 737v263h154v381h102v-381h154v-263h-154v-381h-102v381h-154z" />
<glyph unicode="&#xb2;" horiz-adv-x="273" d="M10 727q0 42 5 74.5t17 77.5q17 66 78 186q45 89 53.5 116t11 44.5t2.5 34.5q0 36 -10.5 58.5t-30.5 22.5t-30 -25q-5 -12 -8.5 -36t-3.5 -54l-76 16q0 54 8.5 97.5t21.5 73.5q32 71 90 71q55 0 85 -63.5t30 -151.5q0 -53 -9 -101.5t-30 -101.5q-8 -24 -54 -112l-33 -69 h126v-158h-243z" />
<glyph unicode="&#xb3;" horiz-adv-x="273" d="M16 946l74 20q0 -25 4 -46t10 -36q12 -26 31 -26t31 30t12 78q0 43 -11 71t-30 28q-12 0 -36 -15l9 146q21 0 33 11.5t16 28t4.5 25.5t0.5 14q0 19 -1 27t-7 20q-9 18 -25 19q-16 0 -26 -23q-5 -11 -9 -30t-4 -45l-72 26q11 106 30 147q30 68 83 68q49 0 79 -62 q15 -32 22 -65.5t7 -76.5q0 -37 -9 -70q-10 -43 -30 -74q27 -24 40 -71q8 -23 11 -47.5t3 -60.5q0 -94 -34 -168t-88 -74q-50 0 -82 63q-16 33 -26 76.5t-10 91.5z" />
<glyph unicode="&#xb4;" horiz-adv-x="273" d="M75 1192l55 299h126l-110 -299h-71z" />
<glyph unicode="&#xb5;" horiz-adv-x="472" d="M44 -407v1469h112v-481q0 -204 17 -283q21 -97 63 -97q21 0 41.5 36t30 99.5t9.5 241.5v484h114v-1062h-105v128q-6 -29 -12.5 -50.5t-10.5 -33.5q-10 -25 -28.5 -47.5t-33.5 -22.5q-28 0 -51 39q-14 27 -34 115v-535h-112z" />
<glyph unicode="&#xb6;" d="M-1 1052q0 52 4 100.5t13 91.5q15 85 44 139q26 49 65 71q23 12 88 12h239v-261h-46v-1608h-94v1608h-58v-1608h-97v1047q-75 13 -116.5 122t-41.5 286z" />
<glyph unicode="&#xb8;" horiz-adv-x="273" d="M15 -285q42 -11 76 -11q36 0 53 32q13 26 13 62q0 33 -13 58.5t-38 25.5q-26 0 -52 -20l10 99q32 27 67 27q51 0 76.5 -55t25.5 -134q0 -88 -29 -143q-38 -75 -111 -75q-52 0 -78 16v118z" />
<glyph unicode="&#xb9;" horiz-adv-x="273" d="M36 1142v155q37 25 69 87q22 41 31 100h62v-757h-76v513q-37 -64 -86 -98z" />
<glyph unicode="&#xba;" horiz-adv-x="299" d="M10 1115q0 175 38 275.5t101 100.5q62 0 100.5 -100t38.5 -276q0 -90 -9 -158t-29 -118q-38 -99 -101 -99q-62 0 -100.5 99t-38.5 276zM95 1113q0 -109 14.5 -156t38.5 -47q23 0 38.5 48t15.5 155q0 111 -16 156q-14 47 -38 47q-23 0 -38 -45.5t-15 -157.5z" />
<glyph unicode="&#xbb;" d="M42 70l104 452l-104 461h89l126 -461l-126 -452h-89zM199 70l104 452l-104 461h89l126 -461l-126 -452h-89z" />
<glyph unicode="&#xbc;" horiz-adv-x="683" d="M37 1142v155q38 27 69 87q20 41 31 100h61v-757h-76v513q-17 -31 -38.5 -55.5t-46.5 -42.5zM136 -54l348 1538h63l-347 -1538h-64zM417 104v141l153 470h62v-466h43v-145h-43v-146h-71v146h-144zM488 249h73v225z" />
<glyph unicode="&#xbd;" horiz-adv-x="683" d="M37 1142v155q38 27 69 87q20 41 31 100h61v-757h-76v513q-17 -31 -38.5 -55.5t-46.5 -42.5zM136 -54l348 1538h63l-347 -1538h-64zM420 -42q0 42 5 74.5t17 77.5q16 64 77 186q46 87 56.5 121.5t10.5 73.5q0 36 -9.5 58.5t-30.5 22.5q-20 0 -31 -26t-11 -89l-76 16 q0 53 8.5 97t21.5 74q32 71 90 71q55 0 84.5 -64t29.5 -151q0 -39 -1.5 -56t-7.5 -47q-7 -45 -29 -100l-54 -112l-33 -70h125v-157h-242z" />
<glyph unicode="&#xbe;" horiz-adv-x="683" d="M16 946l74 20q0 -25 4 -46t10 -36q12 -26 31 -26t31 30t12 78q0 43 -11 71t-30 28q-12 0 -36 -15l9 146q21 0 33 11.5t16 28t4.5 25.5t0.5 14q0 19 -1 27t-7 20q-9 18 -25 19q-16 0 -26 -23q-5 -11 -9 -30t-4 -45l-72 26q11 106 30 147q30 68 83 68q49 0 79 -62 q15 -32 22 -65.5t7 -76.5q0 -37 -9 -70q-10 -43 -30 -74q27 -24 40 -71q8 -23 11 -47.5t3 -60.5q0 -94 -34 -168t-88 -74q-50 0 -82 63q-16 33 -26 76.5t-10 91.5zM146 -54l347 1538h63l-347 -1538h-63zM417 104v141l153 470h62v-466h43v-145h-43v-146h-71v146h-144z M488 249h73v225z" />
<glyph unicode="&#xbf;" horiz-adv-x="500" d="M40 -1q0 50 3 78q5 31 7 46q10 55 32 122q24 65 70 159q36 72 43 116q9 47 9 164h101l1 -76q0 -113 -18 -197q-8 -39 -25 -86.5t-43 -98.5q-49 -102 -60 -144q-4 -18 -7 -43t-3 -50q0 -75 26.5 -134.5t70.5 -59.5q42 0 70.5 58.5t40.5 188.5l104 -33q0 -55 -8 -107 t-21 -101q-28 -110 -76 -165.5t-105 -55.5q-97 0 -154.5 127.5t-57.5 291.5zM193 781v281h112v-281h-112z" />
<glyph unicode="&#xc0;" horiz-adv-x="592" d="M0 0l228 1466h126l234 -1466h-128l-52 333h-234l-48 -333h-126zM210 580h160l-80 544zM413 1849h126l55 -299h-71z" />
<glyph unicode="&#xc1;" horiz-adv-x="592" d="M0 0l228 1466h126l234 -1466h-128l-52 333h-234l-48 -333h-126zM210 580h160l-80 544zM442 1550l55 299h126l-110 -299h-71z" />
<glyph unicode="&#xc2;" horiz-adv-x="592" d="M0 0l228 1466h126l234 -1466h-128l-52 333h-234l-48 -333h-126zM210 580h160l-80 544zM384 1550l84 295h104l83 -295h-90l-47 149l-43 -149h-91z" />
<glyph unicode="&#xc3;" horiz-adv-x="592" d="M0 0l228 1466h126l234 -1466h-128l-52 333h-234l-48 -333h-126zM210 580h160l-80 544zM374 1547v36q0 103 20.5 160.5t52.5 57.5q14 0 26 -8q12 -6 43 -43q32 -35 50 -35q12 0 21 20q5 10 8.5 27.5t3.5 39.5h52q0 -134 -20.5 -192.5t-51.5 -58.5q-13 0 -23 6t-25 19 q-9 8 -24 23q-38 35 -54 35q-13 0 -18.5 -14.5t-7.5 -30t-2 -42.5h-51z" />
<glyph unicode="&#xc4;" horiz-adv-x="592" d="M0 0l228 1466h126l234 -1466h-128l-52 333h-234l-48 -333h-126zM210 580h160l-80 544zM380 1550v241h96v-241h-96zM552 1550v241h97v-241h-97z" />
<glyph unicode="&#xc5;" horiz-adv-x="592" d="M0 0l228 1466h126l234 -1466h-128l-52 333h-234l-48 -333h-126zM210 580h160l-80 544zM442 1562q0 80 23 138t55 58t55.5 -57.5t23.5 -138.5q0 -79 -23.5 -137.5t-55.5 -58.5t-55 57.5t-23 138.5zM485 1562q0 -37 10 -62.5t25 -26.5q14 0 26 26q10 28 10 63q0 37 -10 62 t-26 27q-15 0 -25 -25t-10 -64z" />
<glyph unicode="&#xc6;" horiz-adv-x="819" d="M-34 0l273 1466h530v-248h-291v-326h268v-248h-268v-397h302v-247h-420v345h-203l-60 -345h-131zM200 601h161v643h-46z" />
<glyph unicode="&#xc7;" horiz-adv-x="592" d="M39 720q0 365 76 568t198 203q107 0 175 -159q39 -93 60 -270l-117 -70q-11 116 -43.5 181t-80.5 65q-64 0 -105 -116.5t-41 -379.5q0 -279 39.5 -396.5t104.5 -117.5q46 0 79.5 74.5t50.5 236.5l115 -91q-27 -241 -88.5 -357t-155.5 -116q-117 0 -192 199.5t-75 545.5z M442 -285q42 -11 76 -11q36 0 53 32q13 26 13 62q0 33 -13 58.5t-38 25.5q-26 0 -52 -20l10 99q32 27 67 27q51 0 76.5 -55t25.5 -134q0 -88 -29 -143q-38 -75 -111 -75q-52 0 -78 16v118z" />
<glyph unicode="&#xc8;" horiz-adv-x="546" d="M60 0v1466h434v-248h-316v-325h294v-247h-294v-399h328v-247h-446zM384 1849h126l55 -299h-71z" />
<glyph unicode="&#xc9;" horiz-adv-x="546" d="M60 0v1466h434v-248h-316v-325h294v-247h-294v-399h328v-247h-446zM413 1550l55 299h126l-110 -299h-71z" />
<glyph unicode="&#xca;" horiz-adv-x="546" d="M60 0v1466h434v-248h-316v-325h294v-247h-294v-399h328v-247h-446zM335 1550l84 295h104l83 -295h-90l-47 149l-43 -149h-91z" />
<glyph unicode="&#xcb;" horiz-adv-x="546" d="M60 0v1466h434v-248h-316v-325h294v-247h-294v-399h328v-247h-446zM351 1550v241h96v-241h-96zM523 1550v241h97v-241h-97z" />
<glyph unicode="&#xcc;" horiz-adv-x="228" d="M-35 1849h126l55 -299h-71zM56 0v1466h118v-1466h-118z" />
<glyph unicode="&#xcd;" horiz-adv-x="228" d="M-6 1550l55 299h126l-110 -299h-71zM56 0v1466h118v-1466h-118z" />
<glyph unicode="&#xce;" horiz-adv-x="228" d="M-44 1550l84 295h104l83 -295h-90l-47 149l-43 -149h-91zM56 0v1466h118v-1466h-118z" />
<glyph unicode="&#xcf;" horiz-adv-x="228" d="M-48 1550v241h96v-241h-96zM56 0v1466h118v-1466h-118zM124 1550v241h97v-241h-97z" />
<glyph unicode="&#xd0;" horiz-adv-x="592" d="M-1 640v186h61v640h216q76 0 112 -29q51 -38 88.5 -136t56 -237t18.5 -349q0 -180 -20 -325t-61 -244q-29 -71 -83 -115q-40 -31 -105 -31h-222v640h-61zM178 247h88q59 0 85 24q34 29 53 110q25 117 25 345q0 77 -3 143t-8 111q-11 91 -31.5 145t-53.5 77 q-27 16 -102 16h-53v-392h125v-186h-125v-393z" />
<glyph unicode="&#xd1;" horiz-adv-x="592" d="M61 0v1466h115l240 -979v979h110v-1466h-119l-236 956v-956h-110zM399 1547v36q0 103 20.5 160.5t52.5 57.5q14 0 26 -8q12 -6 43 -43q32 -35 50 -35q12 0 21 20q5 10 8.5 27.5t3.5 39.5h52q0 -134 -20.5 -192.5t-51.5 -58.5q-13 0 -23 6t-25 19q-9 8 -24 23 q-38 35 -54 35q-13 0 -18.5 -14.5t-7.5 -30t-2 -42.5h-51z" />
<glyph unicode="&#xd2;" horiz-adv-x="637" d="M36 724q0 115 6 206.5t20 169.5q11 56 24 104.5t31 96.5q35 89 76 132q55 58 126 58q129 0 207 -201t78 -559q0 -356 -77 -556t-206 -200q-132 0 -208.5 200t-76.5 549zM158 734q0 -250 45.5 -378t116.5 -128t116.5 126.5t45.5 383.5q0 250 -44.5 375t-117.5 125 t-117.5 -126t-44.5 -378zM477 1849h126l55 -299h-71z" />
<glyph unicode="&#xd3;" horiz-adv-x="637" d="M36 724q0 115 6 206.5t20 169.5q11 56 24 104.5t31 96.5q35 89 76 132q55 58 126 58q129 0 207 -201t78 -559q0 -356 -77 -556t-206 -200q-132 0 -208.5 200t-76.5 549zM158 734q0 -250 45.5 -378t116.5 -128t116.5 126.5t45.5 383.5q0 250 -44.5 375t-117.5 125 t-117.5 -126t-44.5 -378zM506 1550l55 299h126l-110 -299h-71z" />
<glyph unicode="&#xd4;" horiz-adv-x="637" d="M36 724q0 115 6 206.5t20 169.5q11 56 24 104.5t31 96.5q35 89 76 132q55 58 126 58q129 0 207 -201t78 -559q0 -356 -77 -556t-206 -200q-132 0 -208.5 200t-76.5 549zM158 734q0 -250 45.5 -378t116.5 -128t116.5 126.5t45.5 383.5q0 250 -44.5 375t-117.5 125 t-117.5 -126t-44.5 -378zM448 1550l84 295h104l83 -295h-90l-47 149l-43 -149h-91z" />
<glyph unicode="&#xd5;" horiz-adv-x="637" d="M36 724q0 115 6 206.5t20 169.5q11 56 24 104.5t31 96.5q35 89 76 132q55 58 126 58q129 0 207 -201t78 -559q0 -356 -77 -556t-206 -200q-132 0 -208.5 200t-76.5 549zM158 734q0 -250 45.5 -378t116.5 -128t116.5 126.5t45.5 383.5q0 250 -44.5 375t-117.5 125 t-117.5 -126t-44.5 -378zM438 1547v36q0 103 20.5 160.5t52.5 57.5q14 0 26 -8q12 -6 43 -43q32 -35 50 -35q12 0 21 20q5 10 8.5 27.5t3.5 39.5h52q0 -134 -20.5 -192.5t-51.5 -58.5q-13 0 -23 6t-25 19q-9 8 -24 23q-38 35 -54 35q-13 0 -18.5 -14.5t-7.5 -30t-2 -42.5 h-51z" />
<glyph unicode="&#xd6;" horiz-adv-x="637" d="M36 724q0 115 6 206.5t20 169.5q11 56 24 104.5t31 96.5q35 89 76 132q55 58 126 58q129 0 207 -201t78 -559q0 -356 -77 -556t-206 -200q-132 0 -208.5 200t-76.5 549zM158 734q0 -250 45.5 -378t116.5 -128t116.5 126.5t45.5 383.5q0 250 -44.5 375t-117.5 125 t-117.5 -126t-44.5 -378zM444 1550v241h96v-241h-96zM616 1550v241h97v-241h-97z" />
<glyph unicode="&#xd7;" horiz-adv-x="478" d="M44 420l121 302l-121 303l74 186l122 -303l120 302l73 -182l-121 -302l122 -305l-74 -186l-122 305l-121 -302z" />
<glyph unicode="&#xd8;" horiz-adv-x="637" d="M25 42l69 192q-29 96 -44 223.5t-15 284.5q0 344 77.5 546.5t205.5 202.5q106 0 178 -132l63 177l55 -122l-66 -188q26 -93 41 -223t15 -278q0 -346 -77 -548t-204 -202q-111 0 -176 125l-65 -182zM157 735q0 -161 19 -272l246 690q-41 86 -102 86q-73 0 -118 -125.5 t-45 -378.5zM220 305q41 -90 99 -90q70 0 116.5 130.5t46.5 383.5q0 81 -4 144.5t-12 122.5z" />
<glyph unicode="&#xd9;" horiz-adv-x="592" d="M59 684v782h118v-794q0 -94 1 -155.5t4 -89.5q0 -44 9.5 -78.5t26.5 -66.5q29 -54 78 -54q50 0 76 51q14 29 22.5 59.5t8.5 67.5q0 28 2.5 117t2.5 132v811h118v-770q0 -110 -4.5 -239.5t-4.5 -133.5q-11 -113 -36.5 -187t-68 -117.5t-112.5 -43.5q-84 0 -128 48.5 t-68.5 125t-33.5 163.5q0 16 -5.5 163.5t-5.5 208.5zM409 1849h126l55 -299h-71z" />
<glyph unicode="&#xda;" horiz-adv-x="592" d="M59 684v782h118v-794q0 -94 1 -155.5t4 -89.5q0 -44 9.5 -78.5t26.5 -66.5q29 -54 78 -54q50 0 76 51q14 29 22.5 59.5t8.5 67.5q0 28 2.5 117t2.5 132v811h118v-770q0 -110 -4.5 -239.5t-4.5 -133.5q-11 -113 -36.5 -187t-68 -117.5t-112.5 -43.5q-84 0 -128 48.5 t-68.5 125t-33.5 163.5q0 16 -5.5 163.5t-5.5 208.5zM438 1550l55 299h126l-110 -299h-71z" />
<glyph unicode="&#xdb;" horiz-adv-x="592" d="M59 684v782h118v-794q0 -94 1 -155.5t4 -89.5q0 -44 9.5 -78.5t26.5 -66.5q29 -54 78 -54q50 0 76 51q14 29 22.5 59.5t8.5 67.5q0 28 2.5 117t2.5 132v811h118v-770q0 -110 -4.5 -239.5t-4.5 -133.5q-11 -113 -36.5 -187t-68 -117.5t-112.5 -43.5q-84 0 -128 48.5 t-68.5 125t-33.5 163.5q0 16 -5.5 163.5t-5.5 208.5zM400 1550l84 295h104l83 -295h-90l-47 149l-43 -149h-91z" />
<glyph unicode="&#xdc;" horiz-adv-x="592" d="M59 684v782h118v-794q0 -94 1 -155.5t4 -89.5q0 -44 9.5 -78.5t26.5 -66.5q29 -54 78 -54q50 0 76 51q14 29 22.5 59.5t8.5 67.5q0 28 2.5 117t2.5 132v811h118v-770q0 -110 -4.5 -239.5t-4.5 -133.5q-11 -113 -36.5 -187t-68 -117.5t-112.5 -43.5q-84 0 -128 48.5 t-68.5 125t-33.5 163.5q0 16 -5.5 163.5t-5.5 208.5zM396 1550v241h96v-241h-96zM568 1550v241h97v-241h-97z" />
<glyph unicode="&#xdd;" horiz-adv-x="546" d="M-1 1466h139l138 -580l135 580h136l-215 -851v-615h-118v617zM383 1550l55 299h126l-110 -299h-71z" />
<glyph unicode="&#xde;" horiz-adv-x="546" d="M60 0v1466h118v-276h72q107 0 141 -22q50 -33 84 -145q16 -53 25 -126t9 -159q0 -131 -20 -226q-10 -46 -22 -82t-28 -63q-30 -53 -61 -69q-44 -22 -123 -22h-77v-276h-118zM178 525h65q67 0 84 11q26 15 43 66t17 135q0 65 -14 117.5t-34 70t-104 17.5h-57v-417z" />
<glyph unicode="&#xdf;" horiz-adv-x="500" d="M56 0v952q0 105 3 177t11 127q13 101 54.5 168t106.5 67q81 0 121.5 -86.5t40.5 -216.5q0 -89 -22 -187l-25 -121l-3 -38q0 -18 2 -33.5t8 -35.5q3 -11 15 -43t33 -84.5t34.5 -95t21.5 -83.5q15 -72 15 -151q0 -143 -40 -241.5t-102 -98.5q-42 0 -77 53.5t-53 135.5 l78 115q9 -39 19 -58t23 -21q16 0 28 29q5 14 8 32.5t3 41.5q0 39 -12 83q-2 9 -17 46.5t-38 92.5q-68 163 -68 255q0 55 26 194q21 104 24 132q4 24 4 58q0 45 -13.5 75.5t-34.5 30.5t-35 -26q-14 -23 -20.5 -70t-6.5 -223v-952h-112z" />
<glyph unicode="&#xe0;" d="M29 290q0 87 17.5 159t48.5 109.5t89 65.5q80 37 109 69v28q0 82 -16 115q-15 35 -60 35q-30 0 -47 -29.5t-27 -103.5l-102 46q16 152 58.5 227t125.5 75q74 0 111 -44.5t52 -113.5q8 -35 12 -95t4 -156l-2 -328q0 -139 6 -207q0 -27 2.5 -46.5t17.5 -95.5h-111l-11 83 l-4 33q-28 -68 -61 -104t-71 -36q-66 0 -103.5 89.5t-37.5 224.5zM142 319q0 -61 17.5 -103t44.5 -42q30 0 58 50q11 19 17 41.5t10 53t4 135.5v56q-18 -16 -67 -42t-62 -50q-22 -38 -22 -99zM235 1491h126l55 -299h-71z" />
<glyph unicode="&#xe1;" d="M29 290q0 87 17.5 159t48.5 109.5t89 65.5q80 37 109 69v28q0 82 -16 115q-15 35 -60 35q-30 0 -47 -29.5t-27 -103.5l-102 46q16 152 58.5 227t125.5 75q74 0 111 -44.5t52 -113.5q8 -35 12 -95t4 -156l-2 -328q0 -139 6 -207q0 -27 2.5 -46.5t17.5 -95.5h-111l-11 83 l-4 33q-28 -68 -61 -104t-71 -36q-66 0 -103.5 89.5t-37.5 224.5zM142 319q0 -61 17.5 -103t44.5 -42q30 0 58 50q11 19 17 41.5t10 53t4 135.5v56q-18 -16 -67 -42t-62 -50q-22 -38 -22 -99zM317 1192l55 299h126l-110 -299h-71z" />
<glyph unicode="&#xe2;" d="M29 290q0 87 17.5 159t48.5 109.5t89 65.5q80 37 109 69v28q0 82 -16 115q-15 35 -60 35q-30 0 -47 -29.5t-27 -103.5l-102 46q16 152 58.5 227t125.5 75q74 0 111 -44.5t52 -113.5q8 -35 12 -95t4 -156l-2 -328q0 -139 6 -207q0 -27 2.5 -46.5t17.5 -95.5h-111l-11 83 l-4 33q-28 -68 -61 -104t-71 -36q-66 0 -103.5 89.5t-37.5 224.5zM142 319q0 -61 17.5 -103t44.5 -42q30 0 58 50q11 19 17 41.5t10 53t4 135.5v56q-18 -16 -67 -42t-62 -50q-22 -38 -22 -99zM231 1196l84 295h104l83 -295h-90l-47 149l-43 -149h-91z" />
<glyph unicode="&#xe3;" d="M29 290q0 87 17.5 159t48.5 109.5t89 65.5q80 37 109 69v28q0 82 -16 115q-15 35 -60 35q-30 0 -47 -29.5t-27 -103.5l-102 46q16 152 58.5 227t125.5 75q74 0 111 -44.5t52 -113.5q8 -35 12 -95t4 -156l-2 -328q0 -139 6 -207q0 -27 2.5 -46.5t17.5 -95.5h-111l-11 83 l-4 33q-28 -68 -61 -104t-71 -36q-66 0 -103.5 89.5t-37.5 224.5zM142 319q0 -61 17.5 -103t44.5 -42q30 0 58 50q11 19 17 41.5t10 53t4 135.5v56q-18 -16 -67 -42t-62 -50q-22 -38 -22 -99zM234 1205v36q0 103 20.5 160.5t52.5 57.5q14 0 26 -8q12 -6 43 -43 q32 -35 50 -35q12 0 21 20q5 10 8.5 27.5t3.5 39.5h52q0 -134 -20.5 -192.5t-51.5 -58.5q-13 0 -23 6t-25 19q-9 8 -24 23q-38 35 -54 35q-13 0 -18.5 -14.5t-7.5 -30t-2 -42.5h-51z" />
<glyph unicode="&#xe4;" d="M29 290q0 87 17.5 159t48.5 109.5t89 65.5q80 37 109 69v28q0 82 -16 115q-15 35 -60 35q-30 0 -47 -29.5t-27 -103.5l-102 46q16 152 58.5 227t125.5 75q74 0 111 -44.5t52 -113.5q8 -35 12 -95t4 -156l-2 -328q0 -139 6 -207q0 -27 2.5 -46.5t17.5 -95.5h-111l-11 83 l-4 33q-28 -68 -61 -104t-71 -36q-66 0 -103.5 89.5t-37.5 224.5zM142 319q0 -61 17.5 -103t44.5 -42q30 0 58 50q11 19 17 41.5t10 53t4 135.5v56q-18 -16 -67 -42t-62 -50q-22 -38 -22 -99zM233 1250v241h96v-241h-96zM405 1250v241h97v-241h-97z" />
<glyph unicode="&#xe5;" d="M29 290q0 87 17.5 159t48.5 109.5t89 65.5q80 37 109 69v28q0 82 -16 115q-15 35 -60 35q-30 0 -47 -29.5t-27 -103.5l-102 46q16 152 58.5 227t125.5 75q74 0 111 -44.5t52 -113.5q8 -35 12 -95t4 -156l-2 -328q0 -139 6 -207q0 -27 2.5 -46.5t17.5 -95.5h-111l-11 83 l-4 33q-28 -68 -61 -104t-71 -36q-66 0 -103.5 89.5t-37.5 224.5zM142 319q0 -61 17.5 -103t44.5 -42q30 0 58 50q11 19 17 41.5t10 53t4 135.5v56q-18 -16 -67 -42t-62 -50q-22 -38 -22 -99zM288 1342q0 80 23 138t55 58t55.5 -57.5t23.5 -138.5q0 -79 -23.5 -137.5 t-55.5 -58.5t-55 57.5t-23 138.5zM331 1342q0 -37 10 -62.5t25 -26.5q14 0 26 26q10 28 10 63q0 37 -10 62t-26 27q-15 0 -25 -25t-10 -64z" />
<glyph unicode="&#xe6;" horiz-adv-x="728" d="M35 288q0 76 13 140.5t32.5 101t53.5 62.5q14 11 95 54q41 21 68 44v28q0 75 -17 114t-53 39q-31 0 -50 -32.5t-28 -100.5l-102 49q19 152 63 225.5t131 73.5q42 0 74 -25q32 -23 56 -73q23 46 53 73q31 25 63 25q64 0 109 -68.5t69.5 -200t24.5 -369.5h-283 q0 -64 8 -111.5t23 -85.5q23 -61 58 -61q27 0 47.5 36t30.5 113l110 -49q-22 -155 -69 -234.5t-118 -79.5q-44 0 -82.5 36.5t-69.5 109.5q-28 -59 -73 -102.5t-93 -43.5q-67 0 -105.5 89t-38.5 223zM148 314q0 -59 17 -99.5t45 -40.5q30 0 56 47q20 35 25 87.5t5 199.5 q-94 -60 -100 -68q-26 -20 -37 -51t-11 -75zM409 624h170q0 40 -2.5 71t-7.5 56q-9 55 -29.5 87.5t-47.5 32.5q-24 0 -41.5 -27t-29.5 -89.5t-12 -130.5z" />
<glyph unicode="&#xe7;" d="M34 530q0 265 55 410.5t151 145.5q76 0 123 -83.5t66 -254.5l-111 -50q0 41 -6.5 69.5t-18.5 55.5q-20 42 -51 42q-43 0 -67.5 -72.5t-24.5 -242.5q0 -191 25.5 -268t67.5 -77q32 0 53 45q12 27 20 65.5t8 91.5l111 -47q-16 -188 -66 -286t-131 -98q-93 0 -148.5 146.5 t-55.5 407.5zM293 -285q42 -11 76 -11q36 0 53 32q13 26 13 62q0 33 -13 58.5t-38 25.5q-26 0 -52 -20l10 99q32 27 67 27q51 0 76.5 -55t25.5 -134q0 -88 -29 -143q-38 -75 -111 -75q-52 0 -78 16v118z" />
<glyph unicode="&#xe8;" d="M26 523q0 264 55.5 413.5t139.5 149.5q95 0 149 -157q27 -75 40 -196t13 -283h-282q0 -62 7 -110.5t20 -84.5q27 -69 65 -69q27 0 44 34t28 118l112 -47q-11 -78 -28 -136t-41 -99q-45 -80 -116 -80q-110 0 -164 181q-42 144 -42 366zM143 622h168q0 118 -24.5 183.5 t-58.5 65.5q-37 0 -61 -66.5t-24 -182.5zM225 1491h126l55 -299h-71z" />
<glyph unicode="&#xe9;" d="M26 523q0 264 55.5 413.5t139.5 149.5q95 0 149 -157q27 -75 40 -196t13 -283h-282q0 -62 7 -110.5t20 -84.5q27 -69 65 -69q27 0 44 34t28 118l112 -47q-11 -78 -28 -136t-41 -99q-45 -80 -116 -80q-110 0 -164 181q-42 144 -42 366zM143 622h168q0 118 -24.5 183.5 t-58.5 65.5q-37 0 -61 -66.5t-24 -182.5zM307 1192l55 299h126l-110 -299h-71z" />
<glyph unicode="&#xea;" d="M26 523q0 264 55.5 413.5t139.5 149.5q95 0 149 -157q27 -75 40 -196t13 -283h-282q0 -62 7 -110.5t20 -84.5q27 -69 65 -69q27 0 44 34t28 118l112 -47q-11 -78 -28 -136t-41 -99q-45 -80 -116 -80q-110 0 -164 181q-42 144 -42 366zM143 622h168q0 118 -24.5 183.5 t-58.5 65.5q-37 0 -61 -66.5t-24 -182.5zM221 1196l84 295h104l83 -295h-90l-47 149l-43 -149h-91z" />
<glyph unicode="&#xeb;" d="M26 523q0 264 55.5 413.5t139.5 149.5q95 0 149 -157q27 -75 40 -196t13 -283h-282q0 -62 7 -110.5t20 -84.5q27 -69 65 -69q27 0 44 34t28 118l112 -47q-11 -78 -28 -136t-41 -99q-45 -80 -116 -80q-110 0 -164 181q-42 144 -42 366zM143 622h168q0 118 -24.5 183.5 t-58.5 65.5q-37 0 -61 -66.5t-24 -182.5zM222 1250v241h96v-241h-96zM394 1250v241h97v-241h-97z" />
<glyph unicode="&#xec;" horiz-adv-x="228" d="M-48 1491h126l55 -299h-71zM59 0v1062h112v-1062h-112z" />
<glyph unicode="&#xed;" horiz-adv-x="228" d="M14 1192l55 299h126l-110 -299h-71zM59 0v1062h112v-1062h-112z" />
<glyph unicode="&#xee;" horiz-adv-x="228" d="M-53 1196l84 295h104l83 -295h-90l-47 149l-43 -149h-91zM59 0v1062h112v-1062h-112z" />
<glyph unicode="&#xef;" horiz-adv-x="228" d="M-51 1250v241h96v-241h-96zM59 0v1062h112v-1062h-112zM121 1250v241h97v-241h-97z" />
<glyph unicode="&#xf0;" horiz-adv-x="500" d="M33 533q0 242 65 399q54 130 122 130q21 0 43 -16q15 -11 45 -53q-5 23 -10 47q-9 37 -16.5 66.5t-31.5 103.5l-100 -119l-17 96l87 103q-19 44 -40.5 87.5t-46.5 88.5h117l44 -89l72 89l18 -98l-58 -67q38 -94 65.5 -190.5t44.5 -197.5q34 -191 34 -367q0 -130 -15 -233 t-47 -182q-60 -156 -159 -156q-94 0 -155 157t-61 401zM150 530q0 -158 29 -242t71 -84q43 0 73 84t30 232q0 149 -30.5 235t-72.5 86q-41 0 -70.5 -82t-29.5 -229z" />
<glyph unicode="&#xf1;" horiz-adv-x="500" d="M58 0v1062h104v-156q56 180 140 180q38 0 68 -33t47 -86q14 -49 21 -116.5t7 -190.5v-660h-112v542q0 77 -2 135.5t-5 86.5q-7 50 -23.5 78.5t-39.5 28.5q-28 0 -51.5 -40t-32.5 -106t-9 -244v-481h-112zM291 1205v36q0 103 20.5 160.5t52.5 57.5q14 0 26 -8 q12 -6 43 -43q32 -35 50 -35q12 0 21 20q5 10 8.5 27.5t3.5 39.5h52q0 -134 -20.5 -192.5t-51.5 -58.5q-13 0 -23 6t-25 19q-9 8 -24 23q-38 35 -54 35q-13 0 -18.5 -14.5t-7.5 -30t-2 -42.5h-51z" />
<glyph unicode="&#xf2;" horiz-adv-x="500" d="M33 546q0 139 27.5 269.5t78 200.5t113.5 70q95 0 157 -158t62 -394q0 -238 -62 -398t-157 -160q-58 0 -111 66t-80.5 193.5t-27.5 310.5zM148 531q0 -156 30 -241t74 -85t74 84t30 244q0 156 -30 240t-74 84t-74 -84t-30 -242zM293 1491h126l55 -299h-71z" />
<glyph unicode="&#xf3;" horiz-adv-x="500" d="M33 546q0 139 27.5 269.5t78 200.5t113.5 70q95 0 157 -158t62 -394q0 -238 -62 -398t-157 -160q-58 0 -111 66t-80.5 193.5t-27.5 310.5zM148 531q0 -156 30 -241t74 -85t74 84t30 244q0 156 -30 240t-74 84t-74 -84t-30 -242zM376 1192l55 299h126l-110 -299h-71z" />
<glyph unicode="&#xf4;" horiz-adv-x="500" d="M33 546q0 139 27.5 269.5t78 200.5t113.5 70q95 0 157 -158t62 -394q0 -238 -62 -398t-157 -160q-58 0 -111 66t-80.5 193.5t-27.5 310.5zM148 531q0 -156 30 -241t74 -85t74 84t30 244q0 156 -30 240t-74 84t-74 -84t-30 -242zM289 1196l84 295h104l83 -295h-90l-47 149 l-43 -149h-91z" />
<glyph unicode="&#xf5;" horiz-adv-x="500" d="M33 546q0 139 27.5 269.5t78 200.5t113.5 70q95 0 157 -158t62 -394q0 -238 -62 -398t-157 -160q-58 0 -111 66t-80.5 193.5t-27.5 310.5zM148 531q0 -156 30 -241t74 -85t74 84t30 244q0 156 -30 240t-74 84t-74 -84t-30 -242zM292 1205v36q0 103 20.5 160.5t52.5 57.5 q14 0 26 -8q12 -6 43 -43q32 -35 50 -35q12 0 21 20q5 10 8.5 27.5t3.5 39.5h52q0 -134 -20.5 -192.5t-51.5 -58.5q-13 0 -23 6t-25 19q-9 8 -24 23q-38 35 -54 35q-13 0 -18.5 -14.5t-7.5 -30t-2 -42.5h-51z" />
<glyph unicode="&#xf6;" horiz-adv-x="500" d="M33 546q0 139 27.5 269.5t78 200.5t113.5 70q95 0 157 -158t62 -394q0 -238 -62 -398t-157 -160q-58 0 -111 66t-80.5 193.5t-27.5 310.5zM148 531q0 -156 30 -241t74 -85t74 84t30 244q0 156 -30 240t-74 84t-74 -84t-30 -242zM280 1250v241h96v-241h-96zM452 1250v241 h97v-241h-97z" />
<glyph unicode="&#xf7;" horiz-adv-x="450" d="M20 592v263h410v-263h-410zM168 185v281h113v-281h-113zM168 981v281h113v-281h-113z" />
<glyph unicode="&#xf8;" horiz-adv-x="500" d="M35 537q0 241 61.5 395t157.5 154q70 0 124 -87l42 120l45 -92l-43 -124q23 -68 37 -168.5t14 -204.5q0 -237 -62.5 -395.5t-157.5 -158.5q-69 0 -123 84l-46 -133l-44 95l46 134q-11 33 -20.5 77t-17.5 97q-13 109 -13 207zM146 540q0 -98 12 -178l157 455 q-26 54 -61 54q-44 0 -76 -87.5t-32 -243.5zM193 242q26 -48 60 -48q46 0 77.5 87t31.5 242q0 92 -12 172z" />
<glyph unicode="&#xf9;" horiz-adv-x="500" d="M56 390v672h113v-488q0 -222 6 -273.5t22 -81t42 -29.5q29 0 51.5 38.5t31.5 98.5q4 25 6 98.5t2 188.5v448h113v-1062h-105v159q-22 -83 -60.5 -133t-79.5 -50q-43 0 -77 46.5t-49 132.5q-8 45 -12 100t-4 135zM288 1491h126l55 -299h-71z" />
<glyph unicode="&#xfa;" horiz-adv-x="500" d="M56 390v672h113v-488q0 -222 6 -273.5t22 -81t42 -29.5q29 0 51.5 38.5t31.5 98.5q4 25 6 98.5t2 188.5v448h113v-1062h-105v159q-22 -83 -60.5 -133t-79.5 -50q-43 0 -77 46.5t-49 132.5q-8 45 -12 100t-4 135zM370 1192l55 299h126l-110 -299h-71z" />
<glyph unicode="&#xfb;" horiz-adv-x="500" d="M56 390v672h113v-488q0 -222 6 -273.5t22 -81t42 -29.5q29 0 51.5 38.5t31.5 98.5q4 25 6 98.5t2 188.5v448h113v-1062h-105v159q-22 -83 -60.5 -133t-79.5 -50q-43 0 -77 46.5t-49 132.5q-8 45 -12 100t-4 135zM284 1196l84 295h104l83 -295h-90l-47 149l-43 -149h-91z " />
<glyph unicode="&#xfc;" horiz-adv-x="500" d="M56 390v672h113v-488q0 -222 6 -273.5t22 -81t42 -29.5q29 0 51.5 38.5t31.5 98.5q4 25 6 98.5t2 188.5v448h113v-1062h-105v159q-22 -83 -60.5 -133t-79.5 -50q-43 0 -77 46.5t-49 132.5q-8 45 -12 100t-4 135zM285 1250v241h96v-241h-96zM457 1250v241h97v-241h-97z " />
<glyph unicode="&#xfd;" d="M6 1062h119l102 -754l99 754h116l-150 -1022l-26 -185q-16 -99 -29.5 -145t-30 -76t-42.5 -47.5t-58 -17.5q-33 0 -63 17l-10 220q28 -13 47 -13q40 0 58 55.5t29 148.5zM306 1192l55 299h126l-110 -299h-71z" />
<glyph unicode="&#xfe;" horiz-adv-x="500" d="M56 -404v1870h112v-528q33 83 60.5 115.5t64.5 32.5q74 0 125.5 -144t51.5 -405q0 -267 -51.5 -414t-126.5 -147q-35 0 -63.5 35t-60.5 120v-535h-112zM167 554q0 -164 21 -244q29 -112 78 -112q36 0 62.5 80t26.5 250q0 179 -26.5 261t-67.5 82q-40 0 -67 -78.5 t-27 -238.5z" />
<glyph unicode="&#xff;" d="M6 1062h119l102 -754l99 754h116l-150 -1022l-26 -185q-16 -99 -29.5 -145t-30 -76t-42.5 -47.5t-58 -17.5q-33 0 -63 17l-10 220q28 -13 47 -13q40 0 58 55.5t29 148.5zM227 1250v241h96v-241h-96zM399 1250v241h97v-241h-97z" />
<glyph unicode="&#x152;" horiz-adv-x="819" d="M29 735q0 378 70 581q60 175 159 175q49 0 91.5 -51.5t67.5 -135.5v162h366v-248h-263v-326h240v-248h-240v-395h274v-249h-377v173q-47 -198 -154 -198q-103 0 -163 170q-71 208 -71 590zM151 757q0 -296 39 -425q30 -97 90 -97q73 0 101.5 138.5t28.5 377.5 q0 267 -35 377t-95 110q-58 0 -93.5 -109.5t-35.5 -371.5z" />
<glyph unicode="&#x153;" horiz-adv-x="773" d="M35 529q0 145 26.5 283t77 206t113.5 68q45 0 82.5 -37.5t66.5 -110.5q27 74 62.5 111t78.5 37q41 0 75 -34q34 -32 55.5 -83t38.5 -131q12 -60 15 -80q7 -46 7 -93q0 -33 3.5 -106.5t3.5 -110.5h-280q0 -61 7.5 -109.5t20.5 -84.5q24 -64 62 -64q26 0 44.5 34.5 t30.5 116.5l109 -44q-18 -148 -67.5 -234.5t-117.5 -86.5q-39 0 -79 36t-70 112q-31 -73 -69.5 -110.5t-80.5 -37.5q-93 0 -154 157t-61 396zM151 515q0 -108 25.5 -207t74.5 -99q42 0 70 81.5t28 249.5q0 151 -28.5 232t-69.5 81q-44 0 -72 -82t-28 -256zM461 624h171 q0 66 -7 111.5t-21 80.5q-24 63 -60 63q-40 0 -62 -80q-10 -33 -15.5 -74t-5.5 -101z" />
<glyph unicode="&#x178;" horiz-adv-x="546" d="M-1 1466h139l138 -580l135 580h136l-215 -851v-615h-118v617zM347 1550v241h96v-241h-96zM519 1550v241h97v-241h-97z" />
<glyph unicode="&#x2c6;" horiz-adv-x="273" d="M1 1196l84 295h104l83 -295h-90l-47 149l-43 -149h-91z" />
<glyph unicode="&#x2dc;" horiz-adv-x="273" d="M-5 1205v36q0 103 20.5 160.5t52.5 57.5q14 0 26 -8q12 -6 43 -43q32 -35 50 -35q12 0 21 20q5 10 8.5 27.5t3.5 39.5h52q0 -134 -20.5 -192.5t-51.5 -58.5q-13 0 -23 6t-25 19q-9 8 -24 23q-38 35 -54 35q-13 0 -18.5 -14.5t-7.5 -30t-2 -42.5h-51z" />
<glyph unicode="&#x2000;" horiz-adv-x="924" />
<glyph unicode="&#x2001;" horiz-adv-x="1849" />
<glyph unicode="&#x2002;" horiz-adv-x="924" />
<glyph unicode="&#x2003;" horiz-adv-x="1849" />
<glyph unicode="&#x2004;" horiz-adv-x="616" />
<glyph unicode="&#x2005;" horiz-adv-x="462" />
<glyph unicode="&#x2006;" horiz-adv-x="308" />
<glyph unicode="&#x2007;" horiz-adv-x="308" />
<glyph unicode="&#x2008;" horiz-adv-x="231" />
<glyph unicode="&#x2009;" horiz-adv-x="369" />
<glyph unicode="&#x200a;" horiz-adv-x="102" />
<glyph unicode="&#x2010;" horiz-adv-x="273" d="M26 391v281h221v-281h-221z" />
<glyph unicode="&#x2011;" horiz-adv-x="273" d="M26 391v281h221v-281h-221z" />
<glyph unicode="&#x2012;" horiz-adv-x="273" d="M26 391v281h221v-281h-221z" />
<glyph unicode="&#x2013;" d="M-2 426v210h456v-210h-456z" />
<glyph unicode="&#x2014;" horiz-adv-x="819" d="M0 426v210h819v-210h-819z" />
<glyph unicode="&#x2018;" horiz-adv-x="228" d="M61 872v201q0 117 8 192q5 37 12 67t20 60q22 54 59 88l22 -116q-33 -27 -48 -77.5t-15 -133.5h54v-281h-112z" />
<glyph unicode="&#x2019;" horiz-adv-x="228" d="M47 970q33 27 48 76t15 135h-54v281h112v-201q0 -129 -6.5 -179t-13.5 -80t-20 -60q-22 -54 -59 -88z" />
<glyph unicode="&#x201a;" horiz-adv-x="228" d="M47 -211q33 27 48 76t15 135h-54v281h112v-201q0 -129 -6.5 -179t-13.5 -80t-20 -60q-22 -54 -59 -88z" />
<glyph unicode="&#x201c;" horiz-adv-x="410" d="M53 872v201q0 117 8 192q5 37 12 67t20 60q22 54 59 88l22 -116q-33 -27 -48 -77.5t-15 -133.5h54v-281h-112zM240 872v201q0 122 8 191t33 128q22 54 59 88l22 -116q-33 -27 -48 -78q-8 -27 -12 -57.5t-4 -75.5h55v-281h-113z" />
<glyph unicode="&#x201d;" horiz-adv-x="410" d="M42 974q33 27 48 78q8 27 12 57.5t4 75.5h-55v281h113v-202q0 -121 -8 -190t-31.5 -126t-60.5 -91zM231 974q33 27 48 78q7 27 11 58.5t4 74.5h-54v281h112v-202q0 -129 -6.5 -178.5t-13.5 -79.5t-20 -61q-24 -56 -59 -88z" />
<glyph unicode="&#x201e;" horiz-adv-x="410" d="M42 -211q33 27 48 78q8 27 12 57.5t4 75.5h-55v281h113v-202q0 -121 -8 -190t-31.5 -126t-60.5 -91zM231 -211q33 27 48 78q7 27 11 58.5t4 74.5h-54v281h112v-202q0 -129 -6.5 -178.5t-13.5 -79.5t-20 -61q-24 -56 -59 -88z" />
<glyph unicode="&#x2022;" horiz-adv-x="287" d="M26 724q0 120 35 207.5t84 87.5t83.5 -86.5t34.5 -208.5t-35 -209t-83 -87q-49 0 -84 87.5t-35 208.5z" />
<glyph unicode="&#x2026;" horiz-adv-x="819" d="M80 0v281h113v-281h-113zM354 0v281h112v-281h-112zM626 0v281h113v-281h-113z" />
<glyph unicode="&#x202f;" horiz-adv-x="369" />
<glyph unicode="&#x2039;" horiz-adv-x="273" d="M30 532l126 451h89l-104 -451l104 -462h-89z" />
<glyph unicode="&#x203a;" horiz-adv-x="273" d="M30 70l104 452l-104 461h88l127 -461l-127 -452h-88z" />
<glyph unicode="&#x205f;" horiz-adv-x="462" />
<glyph unicode="&#x2122;" horiz-adv-x="819" d="M86 1324v142h266v-142h-98v-677h-66v677h-102zM392 647v819h104l59 -564l60 564h104v-819h-63v653l-71 -653h-60l-71 653v-653h-62z" />
<glyph unicode="&#xe000;" horiz-adv-x="1060" d="M0 0v1060h1060v-1060h-1060z" />
</font>
</defs>
</svg>
